<?xml version="1.0" encoding="UTF-8"?>
<svg xmlns="http://www.w3.org/2000/svg" xmlns:xlink="http://www.w3.org/1999/xlink" width="141.73pt" height="141.73pt" viewBox="0 0 141.73 141.73" version="1.2">
<g id="surface166476">
<path style="fill:none;stroke-width:0.85;stroke-linecap:round;stroke-linejoin:round;stroke:rgb(50.196078%,50.196078%,50.196078%);stroke-opacity:1;comp-op:src;clip-to-self:true;stroke-miterlimit:10;" d="M 84.882812 120.441406 L 70.710938 120.441406 L 75.867188 123.417969 L 70.710938 120.441406 L 75.867188 117.46875 "/>
<path style="fill:none;stroke-width:0.85;stroke-linecap:round;stroke-linejoin:round;stroke:rgb(50.196078%,50.196078%,50.196078%);stroke-opacity:1;comp-op:src;clip-to-self:true;stroke-miterlimit:10;" d="M 56.542969 106.273438 L 70.710938 106.273438 L 65.558594 103.296875 L 70.710938 106.273438 L 65.558594 109.246094 "/>
<path style="fill:none;stroke-width:1.41;stroke-linecap:round;stroke-linejoin:round;stroke:rgb(0%,0%,0%);stroke-opacity:1;comp-op:src;clip-to-self:true;stroke-miterlimit:10;" d="M 14.171875 14.171875 L 127.53125 14.171875 "/>
<path style="fill:none;stroke-width:1.41;stroke-linecap:round;stroke-linejoin:round;stroke:rgb(0%,0%,0%);stroke-opacity:1;comp-op:src;clip-to-self:true;stroke-miterlimit:10;" d="M 127.53125 42.511719 L 14.171875 42.511719 "/>
<path style="fill:none;stroke-width:1.41;stroke-linecap:round;stroke-linejoin:round;stroke:rgb(0%,0%,0%);stroke-opacity:1;comp-op:src;clip-to-self:true;stroke-miterlimit:10;" d="M 14.171875 70.851562 L 127.53125 70.851562 "/>
<path style="fill:none;stroke-width:1.41;stroke-linecap:round;stroke-linejoin:round;stroke:rgb(0%,0%,0%);stroke-opacity:1;comp-op:src;clip-to-self:true;stroke-miterlimit:10;" d="M 127.53125 99.191406 L 14.171875 99.191406 "/>
<path style="fill:none;stroke-width:1.41;stroke-linecap:round;stroke-linejoin:round;stroke:rgb(0%,0%,0%);stroke-opacity:1;comp-op:src;clip-to-self:true;stroke-miterlimit:10;" d="M 14.171875 127.53125 L 127.53125 127.53125 "/>
<path style="fill:none;stroke-width:1.41;stroke-linecap:round;stroke-linejoin:round;stroke:rgb(0%,0%,0%);stroke-opacity:1;comp-op:src;clip-to-self:true;stroke-miterlimit:10;" d="M 127.53125 127.53125 L 127.53125 14.171875 "/>
<path style="fill:none;stroke-width:1.41;stroke-linecap:round;stroke-linejoin:round;stroke:rgb(0%,0%,0%);stroke-opacity:1;comp-op:src;clip-to-self:true;stroke-miterlimit:10;" d="M 14.171875 14.171875 L 14.171875 127.53125 "/>
<path style="fill:none;stroke-width:1.41;stroke-linecap:round;stroke-linejoin:round;stroke:rgb(50.196078%,50.196078%,50.196078%);stroke-opacity:1;comp-op:src;clip-to-self:true;stroke-miterlimit:10;" d="M 28.339844 21.253906 L 113.359375 21.253906 L 113.441406 21.269531 L 113.664062 21.320312 L 114.015625 21.40625 L 114.230469 21.464844 L 114.46875 21.539062 L 114.726562 21.621094 L 115.003906 21.71875 L 115.296875 21.828125 L 115.601562 21.953125 L 115.917969 22.089844 L 116.242188 22.246094 L 116.570312 22.414062 L 116.738281 22.503906 L 116.902344 22.601562 L 117.070312 22.699219 L 117.234375 22.804688 L 117.5625 23.023438 L 117.726562 23.144531 L 117.886719 23.265625 L 118.046875 23.390625 L 118.203125 23.523438 L 118.359375 23.660156 L 118.507812 23.800781 L 118.65625 23.949219 L 118.800781 24.101562 L 118.941406 24.257812 L 119.078125 24.421875 L 119.210938 24.589844 L 119.339844 24.761719 L 119.460938 24.941406 L 119.578125 25.125 L 119.6875 25.316406 L 119.792969 25.511719 L 119.890625 25.710938 L 119.980469 25.921875 L 120.066406 26.132812 L 120.140625 26.351562 L 120.210938 26.578125 L 120.269531 26.8125 L 120.324219 27.050781 L 120.367188 27.292969 L 120.398438 27.546875 L 120.425781 27.804688 L 120.441406 28.070312 L 120.445312 28.339844 L 120.441406 28.609375 L 120.425781 28.875 L 120.398438 29.132812 L 120.363281 29.386719 L 120.320312 29.628906 L 120.269531 29.867188 L 120.207031 30.101562 L 120.140625 30.328125 L 120.0625 30.546875 L 119.980469 30.761719 L 119.886719 30.96875 L 119.789062 31.167969 L 119.6875 31.367188 L 119.574219 31.554688 L 119.460938 31.738281 L 119.335938 31.917969 L 119.210938 32.09375 L 119.078125 32.261719 L 118.941406 32.421875 L 118.800781 32.578125 L 118.65625 32.730469 L 118.507812 32.878906 L 118.355469 33.019531 L 118.203125 33.15625 L 118.046875 33.289062 L 117.726562 33.539062 L 117.5625 33.65625 L 117.398438 33.769531 L 117.234375 33.875 L 117.066406 33.980469 L 116.902344 34.078125 L 116.734375 34.175781 L 116.570312 34.265625 L 116.242188 34.4375 L 115.917969 34.589844 L 115.601562 34.726562 L 115.296875 34.851562 L 115.003906 34.960938 L 114.726562 35.058594 L 114.46875 35.140625 L 114.230469 35.214844 L 114.015625 35.273438 L 113.664062 35.359375 L 113.441406 35.410156 L 113.359375 35.425781 L 28.339844 35.425781 L 28.261719 35.40625 L 28.035156 35.34375 L 27.6875 35.238281 L 27.472656 35.167969 L 27.234375 35.085938 L 26.972656 34.992188 L 26.695312 34.882812 L 26.402344 34.761719 L 26.097656 34.625 L 25.78125 34.472656 L 25.457031 34.308594 L 25.128906 34.128906 L 24.796875 33.929688 L 24.632812 33.828125 L 24.464844 33.71875 L 24.136719 33.492188 L 23.972656 33.371094 L 23.8125 33.246094 L 23.652344 33.117188 L 23.496094 32.984375 L 23.191406 32.703125 L 23.042969 32.554688 L 22.898438 32.402344 L 22.757812 32.25 L 22.621094 32.085938 L 22.488281 31.921875 L 22.238281 31.578125 L 22.125 31.398438 L 22.011719 31.210938 L 21.910156 31.023438 L 21.808594 30.828125 L 21.71875 30.628906 L 21.636719 30.421875 L 21.558594 30.214844 L 21.492188 29.996094 L 21.429688 29.777344 L 21.378906 29.550781 L 21.335938 29.320312 L 21.300781 29.082031 L 21.273438 28.839844 L 21.261719 28.59375 L 21.253906 28.339844 L 21.261719 28.085938 L 21.277344 27.839844 L 21.300781 27.597656 L 21.335938 27.359375 L 21.378906 27.128906 L 21.429688 26.902344 L 21.492188 26.683594 L 21.558594 26.46875 L 21.636719 26.257812 L 21.71875 26.050781 L 21.8125 25.851562 L 21.910156 25.65625 L 22.011719 25.46875 L 22.125 25.28125 L 22.242188 25.101562 L 22.363281 24.929688 L 22.488281 24.757812 L 22.621094 24.59375 L 22.757812 24.433594 L 22.898438 24.277344 L 23.042969 24.125 L 23.191406 23.976562 L 23.34375 23.835938 L 23.496094 23.699219 L 23.652344 23.5625 L 23.8125 23.433594 L 23.972656 23.308594 L 24.136719 23.1875 L 24.464844 22.960938 L 24.632812 22.851562 L 24.796875 22.75 L 25.128906 22.550781 L 25.457031 22.371094 L 25.78125 22.207031 L 26.097656 22.054688 L 26.402344 21.921875 L 26.695312 21.796875 L 26.972656 21.6875 L 27.234375 21.59375 L 27.472656 21.511719 L 27.6875 21.441406 L 28.035156 21.335938 L 28.261719 21.273438 L 28.339844 21.253906 "/>
<path style="fill:none;stroke-width:0.85;stroke-linecap:round;stroke-linejoin:round;stroke:rgb(50.196078%,50.196078%,50.196078%);stroke-opacity:1;comp-op:src;clip-to-self:true;stroke-miterlimit:10;" d="M 85.019531 35.425781 L 70.851562 35.425781 L 76.003906 38.398438 L 70.851562 35.425781 L 76.003906 32.449219 "/>
<path style="fill:none;stroke-width:0.85;stroke-linecap:round;stroke-linejoin:round;stroke:rgb(50.196078%,50.196078%,50.196078%);stroke-opacity:1;comp-op:src;clip-to-self:true;stroke-miterlimit:10;" d="M 56.679688 21.253906 L 70.851562 21.253906 L 65.695312 18.28125 L 70.851562 21.253906 L 65.695312 24.230469 "/>
<path style="fill:none;stroke-width:1.41;stroke-linecap:round;stroke-linejoin:round;stroke:rgb(50.196078%,50.196078%,50.196078%);stroke-opacity:1;comp-op:src;clip-to-self:true;stroke-miterlimit:10;" d="M 28.339844 49.59375 L 113.359375 49.59375 L 113.441406 49.609375 L 113.664062 49.660156 L 114.015625 49.746094 L 114.230469 49.808594 L 114.46875 49.878906 L 114.726562 49.960938 L 115.003906 50.058594 L 115.296875 50.167969 L 115.601562 50.292969 L 115.917969 50.429688 L 116.242188 50.585938 L 116.570312 50.753906 L 116.738281 50.84375 L 116.902344 50.941406 L 117.070312 51.039062 L 117.234375 51.144531 L 117.5625 51.363281 L 117.726562 51.484375 L 117.886719 51.605469 L 118.046875 51.730469 L 118.203125 51.863281 L 118.359375 52 L 118.507812 52.140625 L 118.65625 52.289062 L 118.800781 52.441406 L 118.941406 52.597656 L 119.078125 52.761719 L 119.210938 52.929688 L 119.339844 53.101562 L 119.460938 53.28125 L 119.578125 53.464844 L 119.6875 53.65625 L 119.792969 53.851562 L 119.890625 54.050781 L 119.980469 54.261719 L 120.066406 54.472656 L 120.140625 54.695312 L 120.210938 54.917969 L 120.269531 55.152344 L 120.324219 55.390625 L 120.367188 55.636719 L 120.398438 55.886719 L 120.425781 56.144531 L 120.441406 56.410156 L 120.445312 56.679688 L 120.441406 56.953125 L 120.425781 57.214844 L 120.398438 57.472656 L 120.363281 57.726562 L 120.320312 57.96875 L 120.269531 58.207031 L 120.207031 58.441406 L 120.140625 58.667969 L 120.0625 58.886719 L 119.980469 59.101562 L 119.886719 59.308594 L 119.789062 59.507812 L 119.6875 59.707031 L 119.574219 59.894531 L 119.460938 60.078125 L 119.335938 60.257812 L 119.210938 60.433594 L 119.078125 60.601562 L 118.941406 60.761719 L 118.800781 60.917969 L 118.65625 61.070312 L 118.507812 61.21875 L 118.355469 61.359375 L 118.203125 61.496094 L 118.046875 61.628906 L 117.726562 61.878906 L 117.5625 61.996094 L 117.398438 62.109375 L 117.234375 62.214844 L 117.066406 62.320312 L 116.902344 62.417969 L 116.734375 62.515625 L 116.570312 62.605469 L 116.242188 62.777344 L 115.917969 62.929688 L 115.601562 63.066406 L 115.296875 63.191406 L 115.003906 63.300781 L 114.726562 63.398438 L 114.46875 63.480469 L 114.230469 63.554688 L 114.015625 63.613281 L 113.664062 63.699219 L 113.441406 63.75 L 113.359375 63.765625 L 28.339844 63.765625 L 28.261719 63.746094 L 28.035156 63.683594 L 27.6875 63.578125 L 27.472656 63.507812 L 27.234375 63.425781 L 26.972656 63.332031 L 26.695312 63.222656 L 26.402344 63.101562 L 26.097656 62.964844 L 25.78125 62.8125 L 25.457031 62.648438 L 25.128906 62.46875 L 24.796875 62.269531 L 24.632812 62.167969 L 24.464844 62.058594 L 24.136719 61.832031 L 23.972656 61.710938 L 23.8125 61.585938 L 23.652344 61.457031 L 23.496094 61.324219 L 23.191406 61.042969 L 23.042969 60.894531 L 22.898438 60.746094 L 22.757812 60.589844 L 22.621094 60.425781 L 22.488281 60.261719 L 22.363281 60.09375 L 22.238281 59.917969 L 22.125 59.738281 L 22.011719 59.550781 L 21.910156 59.363281 L 21.808594 59.167969 L 21.71875 58.96875 L 21.636719 58.761719 L 21.558594 58.554688 L 21.492188 58.335938 L 21.429688 58.117188 L 21.378906 57.890625 L 21.335938 57.660156 L 21.300781 57.421875 L 21.273438 57.179688 L 21.261719 56.933594 L 21.253906 56.679688 L 21.261719 56.425781 L 21.277344 56.179688 L 21.300781 55.9375 L 21.335938 55.699219 L 21.378906 55.46875 L 21.429688 55.242188 L 21.492188 55.023438 L 21.558594 54.808594 L 21.636719 54.597656 L 21.71875 54.390625 L 21.8125 54.191406 L 21.910156 53.996094 L 22.011719 53.808594 L 22.125 53.621094 L 22.242188 53.441406 L 22.363281 53.269531 L 22.488281 53.097656 L 22.621094 52.933594 L 22.757812 52.773438 L 22.898438 52.617188 L 23.042969 52.464844 L 23.191406 52.316406 L 23.34375 52.175781 L 23.496094 52.039062 L 23.652344 51.902344 L 23.8125 51.773438 L 23.972656 51.648438 L 24.300781 51.414062 L 24.464844 51.300781 L 24.632812 51.191406 L 24.796875 51.089844 L 25.128906 50.894531 L 25.457031 50.710938 L 25.78125 50.546875 L 26.097656 50.394531 L 26.402344 50.261719 L 26.695312 50.136719 L 26.972656 50.027344 L 27.234375 49.933594 L 27.472656 49.851562 L 27.6875 49.78125 L 28.035156 49.675781 L 28.261719 49.613281 L 28.339844 49.59375 "/>
<path style="fill:none;stroke-width:1.41;stroke-linecap:round;stroke-linejoin:round;stroke:rgb(50.196078%,50.196078%,50.196078%);stroke-opacity:1;comp-op:src;clip-to-self:true;stroke-miterlimit:10;" d="M 28.339844 77.933594 L 113.359375 77.933594 L 113.441406 77.949219 L 113.664062 78 L 114.015625 78.085938 L 114.230469 78.148438 L 114.46875 78.21875 L 114.726562 78.300781 L 115.003906 78.398438 L 115.296875 78.507812 L 115.601562 78.632812 L 115.917969 78.769531 L 116.242188 78.925781 L 116.570312 79.09375 L 116.738281 79.183594 L 116.902344 79.28125 L 117.070312 79.378906 L 117.234375 79.484375 L 117.398438 79.59375 L 117.5625 79.707031 L 117.726562 79.824219 L 117.886719 79.945312 L 118.046875 80.070312 L 118.203125 80.203125 L 118.359375 80.339844 L 118.507812 80.480469 L 118.65625 80.628906 L 118.800781 80.78125 L 118.941406 80.9375 L 119.078125 81.101562 L 119.210938 81.269531 L 119.339844 81.441406 L 119.460938 81.621094 L 119.578125 81.804688 L 119.6875 81.996094 L 119.792969 82.191406 L 119.890625 82.390625 L 119.980469 82.601562 L 120.066406 82.8125 L 120.140625 83.035156 L 120.210938 83.257812 L 120.269531 83.492188 L 120.324219 83.730469 L 120.367188 83.976562 L 120.398438 84.226562 L 120.425781 84.484375 L 120.441406 84.75 L 120.445312 85.019531 L 120.441406 85.292969 L 120.425781 85.554688 L 120.398438 85.8125 L 120.363281 86.066406 L 120.320312 86.308594 L 120.269531 86.546875 L 120.207031 86.78125 L 120.140625 87.007812 L 120.0625 87.226562 L 119.980469 87.441406 L 119.886719 87.648438 L 119.789062 87.847656 L 119.6875 88.046875 L 119.460938 88.421875 L 119.210938 88.773438 L 119.078125 88.941406 L 118.941406 89.101562 L 118.800781 89.257812 L 118.65625 89.410156 L 118.507812 89.558594 L 118.355469 89.699219 L 118.203125 89.835938 L 118.046875 89.96875 L 117.726562 90.21875 L 117.5625 90.335938 L 117.398438 90.449219 L 117.234375 90.554688 L 117.066406 90.660156 L 116.902344 90.757812 L 116.734375 90.855469 L 116.570312 90.945312 L 116.242188 91.117188 L 115.917969 91.269531 L 115.601562 91.40625 L 115.296875 91.53125 L 115.003906 91.640625 L 114.726562 91.738281 L 114.46875 91.820312 L 114.230469 91.894531 L 114.015625 91.953125 L 113.664062 92.039062 L 113.441406 92.089844 L 113.359375 92.105469 L 28.339844 92.105469 L 28.261719 92.085938 L 28.035156 92.023438 L 27.6875 91.917969 L 27.472656 91.847656 L 27.234375 91.765625 L 26.972656 91.671875 L 26.695312 91.5625 L 26.402344 91.441406 L 26.097656 91.304688 L 25.78125 91.152344 L 25.457031 90.988281 L 25.128906 90.808594 L 24.796875 90.609375 L 24.632812 90.507812 L 24.464844 90.398438 L 24.136719 90.171875 L 23.972656 90.050781 L 23.8125 89.925781 L 23.652344 89.796875 L 23.496094 89.664062 L 23.191406 89.382812 L 23.042969 89.234375 L 22.898438 89.085938 L 22.757812 88.929688 L 22.621094 88.765625 L 22.488281 88.601562 L 22.363281 88.433594 L 22.238281 88.257812 L 22.125 88.078125 L 22.011719 87.890625 L 21.910156 87.703125 L 21.808594 87.507812 L 21.71875 87.308594 L 21.636719 87.101562 L 21.558594 86.894531 L 21.492188 86.675781 L 21.429688 86.457031 L 21.378906 86.230469 L 21.335938 86 L 21.300781 85.761719 L 21.273438 85.519531 L 21.261719 85.273438 L 21.253906 85.019531 L 21.261719 84.765625 L 21.277344 84.519531 L 21.300781 84.277344 L 21.335938 84.039062 L 21.378906 83.808594 L 21.429688 83.582031 L 21.492188 83.363281 L 21.558594 83.148438 L 21.636719 82.9375 L 21.71875 82.730469 L 21.8125 82.53125 L 21.910156 82.335938 L 22.011719 82.148438 L 22.125 81.964844 L 22.242188 81.78125 L 22.363281 81.609375 L 22.488281 81.4375 L 22.621094 81.273438 L 22.757812 81.113281 L 22.898438 80.957031 L 23.042969 80.804688 L 23.191406 80.65625 L 23.34375 80.515625 L 23.496094 80.378906 L 23.652344 80.242188 L 23.8125 80.113281 L 23.972656 79.988281 L 24.300781 79.753906 L 24.464844 79.640625 L 24.632812 79.53125 L 24.796875 79.429688 L 25.128906 79.234375 L 25.457031 79.050781 L 25.78125 78.886719 L 26.097656 78.734375 L 26.402344 78.601562 L 26.695312 78.476562 L 26.972656 78.371094 L 27.234375 78.273438 L 27.472656 78.191406 L 27.6875 78.121094 L 28.035156 78.015625 L 28.261719 77.953125 L 28.339844 77.933594 "/>
<path style="fill:none;stroke-width:1.41;stroke-linecap:round;stroke-linejoin:round;stroke:rgb(50.196078%,50.196078%,50.196078%);stroke-opacity:1;comp-op:src;clip-to-self:true;stroke-miterlimit:10;" d="M 28.339844 106.273438 L 113.359375 106.273438 L 113.441406 106.289062 L 113.664062 106.339844 L 114.015625 106.425781 L 114.230469 106.488281 L 114.46875 106.558594 L 114.726562 106.640625 L 115.003906 106.738281 L 115.296875 106.847656 L 115.601562 106.972656 L 115.917969 107.109375 L 116.242188 107.265625 L 116.570312 107.433594 L 116.738281 107.523438 L 116.902344 107.621094 L 117.070312 107.71875 L 117.234375 107.824219 L 117.398438 107.933594 L 117.5625 108.046875 L 117.726562 108.164062 L 117.886719 108.285156 L 118.046875 108.410156 L 118.203125 108.542969 L 118.359375 108.679688 L 118.507812 108.820312 L 118.65625 108.96875 L 118.800781 109.121094 L 118.941406 109.277344 L 119.078125 109.441406 L 119.210938 109.609375 L 119.339844 109.78125 L 119.460938 109.960938 L 119.578125 110.144531 L 119.6875 110.335938 L 119.792969 110.53125 L 119.890625 110.730469 L 119.980469 110.941406 L 120.066406 111.152344 L 120.140625 111.375 L 120.210938 111.597656 L 120.269531 111.832031 L 120.324219 112.070312 L 120.367188 112.316406 L 120.398438 112.566406 L 120.425781 112.824219 L 120.441406 113.089844 L 120.445312 113.359375 L 120.441406 113.632812 L 120.425781 113.894531 L 120.398438 114.152344 L 120.363281 114.40625 L 120.320312 114.648438 L 120.269531 114.886719 L 120.207031 115.121094 L 120.140625 115.347656 L 120.0625 115.566406 L 119.980469 115.78125 L 119.886719 115.988281 L 119.789062 116.191406 L 119.6875 116.386719 L 119.460938 116.761719 L 119.210938 117.113281 L 119.078125 117.28125 L 118.941406 117.441406 L 118.800781 117.597656 L 118.65625 117.75 L 118.507812 117.898438 L 118.355469 118.039062 L 118.203125 118.175781 L 118.046875 118.308594 L 117.726562 118.558594 L 117.5625 118.675781 L 117.398438 118.789062 L 117.234375 118.894531 L 117.066406 119 L 116.902344 119.097656 L 116.734375 119.195312 L 116.570312 119.285156 L 116.242188 119.457031 L 115.917969 119.609375 L 115.601562 119.75 L 115.296875 119.871094 L 115.003906 119.980469 L 114.726562 120.078125 L 114.46875 120.160156 L 114.230469 120.234375 L 114.015625 120.292969 L 113.664062 120.382812 L 113.441406 120.429688 L 113.359375 120.445312 L 28.339844 120.445312 L 28.261719 120.425781 L 28.035156 120.363281 L 27.6875 120.257812 L 27.472656 120.1875 L 27.234375 120.105469 L 26.972656 120.011719 L 26.695312 119.902344 L 26.402344 119.78125 L 26.097656 119.644531 L 25.78125 119.492188 L 25.457031 119.328125 L 25.128906 119.148438 L 24.796875 118.953125 L 24.632812 118.847656 L 24.464844 118.738281 L 24.136719 118.511719 L 23.972656 118.390625 L 23.8125 118.265625 L 23.652344 118.136719 L 23.496094 118.003906 L 23.191406 117.722656 L 23.042969 117.574219 L 22.898438 117.425781 L 22.757812 117.269531 L 22.621094 117.109375 L 22.488281 116.941406 L 22.363281 116.773438 L 22.238281 116.597656 L 22.125 116.417969 L 22.011719 116.230469 L 21.910156 116.042969 L 21.808594 115.847656 L 21.71875 115.648438 L 21.636719 115.441406 L 21.558594 115.234375 L 21.492188 115.019531 L 21.429688 114.796875 L 21.378906 114.570312 L 21.335938 114.339844 L 21.300781 114.101562 L 21.273438 113.859375 L 21.261719 113.613281 L 21.253906 113.359375 L 21.261719 113.105469 L 21.277344 112.859375 L 21.300781 112.617188 L 21.335938 112.378906 L 21.378906 112.148438 L 21.429688 111.921875 L 21.492188 111.703125 L 21.558594 111.488281 L 21.636719 111.277344 L 21.71875 111.070312 L 21.8125 110.871094 L 21.910156 110.675781 L 22.011719 110.488281 L 22.125 110.304688 L 22.242188 110.125 L 22.363281 109.949219 L 22.488281 109.777344 L 22.621094 109.613281 L 22.757812 109.453125 L 22.898438 109.296875 L 23.042969 109.144531 L 23.191406 108.996094 L 23.34375 108.855469 L 23.496094 108.71875 L 23.652344 108.582031 L 23.8125 108.453125 L 23.972656 108.328125 L 24.300781 108.09375 L 24.464844 107.980469 L 24.632812 107.871094 L 24.796875 107.769531 L 25.128906 107.574219 L 25.457031 107.390625 L 25.78125 107.226562 L 26.097656 107.078125 L 26.402344 106.941406 L 26.695312 106.816406 L 26.972656 106.710938 L 27.234375 106.613281 L 27.472656 106.53125 L 27.6875 106.460938 L 28.035156 106.355469 L 28.261719 106.292969 L 28.339844 106.273438 "/>
<path style="fill:none;stroke-width:0.85;stroke-linecap:round;stroke-linejoin:round;stroke:rgb(50.196078%,50.196078%,50.196078%);stroke-opacity:1;comp-op:src;clip-to-self:true;stroke-miterlimit:10;" d="M 85.179688 63.796875 L 71.007812 63.796875 L 76.164062 66.769531 L 71.007812 63.796875 L 76.164062 60.820312 "/>
<path style="fill:none;stroke-width:0.85;stroke-linecap:round;stroke-linejoin:round;stroke:rgb(50.196078%,50.196078%,50.196078%);stroke-opacity:1;comp-op:src;clip-to-self:true;stroke-miterlimit:10;" d="M 56.839844 49.625 L 71.007812 49.625 L 65.855469 46.652344 L 71.007812 49.625 L 65.855469 52.601562 "/>
<path style="fill:none;stroke-width:0.85;stroke-linecap:round;stroke-linejoin:round;stroke:rgb(50.196078%,50.196078%,50.196078%);stroke-opacity:1;comp-op:src;clip-to-self:true;stroke-miterlimit:10;" d="M 84.785156 92.164062 L 70.613281 92.164062 L 75.769531 95.136719 L 70.613281 92.164062 L 75.769531 89.1875 "/>
<path style="fill:none;stroke-width:0.85;stroke-linecap:round;stroke-linejoin:round;stroke:rgb(50.196078%,50.196078%,50.196078%);stroke-opacity:1;comp-op:src;clip-to-self:true;stroke-miterlimit:10;" d="M 56.445312 77.992188 L 70.613281 77.992188 L 65.460938 75.019531 L 70.613281 77.992188 L 65.460938 80.96875 "/>
</g>
</svg>
